<svg width="248" height="76" viewBox="0 0 248 76" fill="none" xmlns="http://www.w3.org/2000/svg">
<path d="M240.641 16.9056C240.641 16.9056 237.159 27.1522 219.5 20.7171C209.905 17.2196 198.231 19.485 195.337 36.1445C200.127 31.7376 211.828 23.0106 224.041 29.3148C224.041 29.3148 211.613 24.6684 196.983 39.8246C201.214 44.691 212.123 54.9719 224.006 48.0798C239.704 38.9718 240.641 16.9056 240.641 16.9056Z" fill="#3A7F0D"/>
<path d="M197.045 39.7623C210.826 44.5733 226.587 41.479 237.541 30.9525C240.355 23.4918 240.641 16.9056 240.641 16.9056C240.641 16.9056 237.159 27.1522 219.5 20.7171C209.905 17.2196 198.231 19.485 195.337 36.1445C200.127 31.7376 211.828 23.0106 224.041 29.3148C224.041 29.3144 211.648 24.6835 197.045 39.7623Z" fill="#49A010"/>
<path d="M212.136 14.7578C212.664 15.217 213.465 15.161 213.924 14.6327C214.383 14.1044 214.327 13.3039 213.799 12.8447C213.27 12.3855 212.47 12.4414 212.011 12.9697C211.551 13.498 211.607 14.2985 212.136 14.7578Z" fill="#3A7F0D"/>
<path d="M216.211 16.1407C216.588 16.4688 217.16 16.4288 217.488 16.0514C217.816 15.6741 217.776 15.1023 217.399 14.7743C217.021 14.4463 216.45 14.4863 216.122 14.8636C215.794 15.241 215.834 15.8127 216.211 16.1407Z" fill="#49A010"/>
<path d="M220.347 10.1406C221.291 10.9606 222.72 10.8606 223.54 9.9173C224.36 8.97398 224.26 7.54452 223.317 6.72451C222.374 5.9045 220.944 6.00446 220.124 6.94777C219.304 7.89109 219.404 9.32055 220.347 10.1406Z" fill="#49A010"/>
<path d="M223.233 17.4465C223.534 17.7089 223.992 17.6769 224.254 17.375C224.517 17.0732 224.485 16.6157 224.183 16.3533C223.881 16.0909 223.424 16.1229 223.161 16.4248C222.899 16.7266 222.931 17.1841 223.233 17.4465Z" fill="#49A010"/>
<path d="M229.592 19.3765C230.46 20.1309 231.775 20.0389 232.53 19.1711C233.284 18.3032 233.192 16.9881 232.324 16.2337C231.456 15.4793 230.141 15.5712 229.387 16.4391C228.633 17.3069 228.724 18.622 229.592 19.3765Z" fill="#49A010"/>
<path d="M9.3782 54.5568V67H2.43217V45.1818H9.03729V49.1875H9.27876C9.76172 47.8523 10.5856 46.8059 11.7504 46.0483C12.9151 45.2812 14.3024 44.8977 15.9123 44.8977C17.4464 44.8977 18.7769 45.2434 19.9038 45.9347C21.0401 46.6165 21.9208 47.5729 22.5458 48.804C23.1803 50.0256 23.4928 51.4555 23.4833 53.0938V67H16.5373V54.4574C16.5468 53.2453 16.239 52.2983 15.614 51.6165C14.9985 50.9347 14.1415 50.5938 13.043 50.5938C12.3138 50.5938 11.6699 50.7547 11.1112 51.0767C10.5619 51.3892 10.1358 51.839 9.83274 52.4261C9.53918 53.0133 9.38767 53.7235 9.3782 54.5568ZM35.7525 67.3125C34.1426 67.3125 32.6796 66.8958 31.3633 66.0625C30.047 65.2292 28.9959 63.9792 28.2099 62.3125C27.4239 60.6458 27.0309 58.5767 27.0309 56.1051C27.0309 53.5388 27.4381 51.4271 28.2525 49.7699C29.0669 48.1127 30.1322 46.8864 31.4485 46.0909C32.7743 45.2955 34.1995 44.8977 35.7241 44.8977C36.8699 44.8977 37.85 45.0966 38.6644 45.4943C39.4788 45.8826 40.1512 46.3845 40.6815 47C41.2118 47.6155 41.6142 48.2547 41.8888 48.9176H42.0309V37.9091H48.9769V67H42.1019V63.4631H41.8888C41.5953 64.1354 41.1786 64.7652 40.6388 65.3523C40.0991 65.9394 39.422 66.4129 38.6076 66.7727C37.8027 67.1326 36.851 67.3125 35.7525 67.3125ZM38.1673 61.9006C39.0101 61.9006 39.7298 61.6638 40.3263 61.1903C40.9229 60.7074 41.3822 60.0303 41.7042 59.1591C42.0262 58.2879 42.1871 57.2652 42.1871 56.0909C42.1871 54.8977 42.0262 53.8703 41.7042 53.0085C41.3917 52.1468 40.9324 51.4839 40.3263 51.0199C39.7298 50.5559 39.0101 50.3239 38.1673 50.3239C37.3055 50.3239 36.5763 50.5606 35.9798 51.0341C35.3832 51.5076 34.9286 52.1752 34.6161 53.0369C34.3131 53.8987 34.1616 54.9167 34.1616 56.0909C34.1616 57.2652 34.3178 58.2879 34.6303 59.1591C34.9428 60.0303 35.3926 60.7074 35.9798 61.1903C36.5763 61.6638 37.3055 61.9006 38.1673 61.9006ZM53.3697 67V45.1818H60.1168V49.1591H60.3441C60.7418 47.7197 61.3905 46.6496 62.2901 45.9489C63.1897 45.2386 64.2362 44.8835 65.4293 44.8835C65.7513 44.8835 66.0827 44.9072 66.4237 44.9545C66.7646 44.9924 67.0818 45.054 67.3754 45.1392V51.1761C67.0439 51.0625 66.6083 50.9725 66.0685 50.9062C65.5382 50.84 65.0647 50.8068 64.6481 50.8068C63.8242 50.8068 63.0808 50.9915 62.418 51.3608C61.7646 51.7206 61.2485 52.2273 60.8697 52.8807C60.5004 53.5246 60.3157 54.2822 60.3157 55.1534V67H53.3697ZM79.2717 67.4119C76.9895 67.4119 75.0198 66.9621 73.3626 66.0625C71.7148 65.1534 70.4459 63.8608 69.5558 62.1847C68.6751 60.4991 68.2347 58.4962 68.2347 56.1761C68.2347 53.9223 68.6798 51.9527 69.57 50.267C70.4601 48.572 71.7148 47.2557 73.3342 46.3182C74.9535 45.3712 76.8616 44.8977 79.0586 44.8977C80.6116 44.8977 82.0321 45.1392 83.32 45.6222C84.6078 46.1051 85.7205 46.8201 86.658 47.767C87.5955 48.714 88.3247 49.8835 88.8455 51.2756C89.3664 52.6581 89.6268 54.2443 89.6268 56.0341V57.767H70.6637V53.733H83.1637C83.1542 52.9943 82.979 52.3362 82.6381 51.7585C82.2972 51.1809 81.8285 50.7311 81.2319 50.4091C80.6448 50.0777 79.9677 49.9119 79.2006 49.9119C78.4241 49.9119 77.7281 50.0871 77.1126 50.4375C76.497 50.7784 76.0094 51.2472 75.6495 51.8438C75.2897 52.4309 75.1003 53.0985 75.0813 53.8466V57.9517C75.0813 58.8419 75.2565 59.6231 75.6069 60.2955C75.9573 60.9583 76.4544 61.4744 77.0984 61.8438C77.7423 62.2131 78.5094 62.3977 79.3995 62.3977C80.015 62.3977 80.5737 62.3125 81.0756 62.142C81.5775 61.9716 82.0084 61.7206 82.3683 61.3892C82.7281 61.0578 82.998 60.6506 83.1779 60.1676L89.5558 60.3523C89.2906 61.7822 88.7082 63.0275 87.8086 64.0881C86.9184 65.1392 85.7489 65.9583 84.3001 66.5455C82.8512 67.1231 81.1751 67.4119 79.2717 67.4119ZM93.1744 75.1818V45.1818H100.049V48.9176H100.262C100.547 48.2547 100.949 47.6155 101.47 47C102 46.3845 102.672 45.8826 103.487 45.4943C104.311 45.0966 105.296 44.8977 106.441 44.8977C107.957 44.8977 109.372 45.2955 110.689 46.0909C112.014 46.8864 113.084 48.1127 113.899 49.7699C114.713 51.4271 115.12 53.5388 115.12 56.1051C115.12 58.5767 114.727 60.6458 113.941 62.3125C113.165 63.9792 112.114 65.2292 110.788 66.0625C109.472 66.8958 108.009 67.3125 106.399 67.3125C105.3 67.3125 104.349 67.1326 103.544 66.7727C102.739 66.4129 102.062 65.9394 101.512 65.3523C100.973 64.7652 100.556 64.1354 100.262 63.4631H100.12V75.1818H93.1744ZM99.9783 56.0909C99.9783 57.2652 100.135 58.2879 100.447 59.1591C100.769 60.0303 101.228 60.7074 101.825 61.1903C102.431 61.6638 103.155 61.9006 103.998 61.9006C104.85 61.9006 105.575 61.6638 106.172 61.1903C106.768 60.7074 107.218 60.0303 107.521 59.1591C107.833 58.2879 107.99 57.2652 107.99 56.0909C107.99 54.9167 107.833 53.8987 107.521 53.0369C107.218 52.1752 106.768 51.5076 106.172 51.0341C105.584 50.5606 104.86 50.3239 103.998 50.3239C103.146 50.3239 102.422 50.5559 101.825 51.0199C101.228 51.4839 100.769 52.1468 100.447 53.0085C100.135 53.8703 99.9783 54.8977 99.9783 56.0909ZM128.945 67.4119C126.653 67.4119 124.684 66.9432 123.036 66.0057C121.398 65.0587 120.133 63.7424 119.243 62.0568C118.363 60.3617 117.922 58.3968 117.922 56.1619C117.922 53.9176 118.363 51.9527 119.243 50.267C120.133 48.572 121.398 47.2557 123.036 46.3182C124.684 45.3712 126.653 44.8977 128.945 44.8977C131.237 44.8977 133.202 45.3712 134.84 46.3182C136.488 47.2557 137.752 48.572 138.632 50.267C139.523 51.9527 139.968 53.9176 139.968 56.1619C139.968 58.3968 139.523 60.3617 138.632 62.0568C137.752 63.7424 136.488 65.0587 134.84 66.0057C133.202 66.9432 131.237 67.4119 128.945 67.4119ZM128.988 62.1705C129.821 62.1705 130.526 61.9148 131.104 61.4034C131.682 60.892 132.122 60.1818 132.425 59.2727C132.738 58.3636 132.894 57.3125 132.894 56.1193C132.894 54.9072 132.738 53.8466 132.425 52.9375C132.122 52.0284 131.682 51.3182 131.104 50.8068C130.526 50.2955 129.821 50.0398 128.988 50.0398C128.126 50.0398 127.397 50.2955 126.8 50.8068C126.213 51.3182 125.763 52.0284 125.451 52.9375C125.148 53.8466 124.996 54.9072 124.996 56.1193C124.996 57.3125 125.148 58.3636 125.451 59.2727C125.763 60.1818 126.213 60.892 126.8 61.4034C127.397 61.9148 128.126 62.1705 128.988 62.1705ZM143.526 67V45.1818H150.273V49.1591H150.5C150.898 47.7197 151.547 46.6496 152.446 45.9489C153.346 45.2386 154.392 44.8835 155.586 44.8835C155.908 44.8835 156.239 44.9072 156.58 44.9545C156.921 44.9924 157.238 45.054 157.532 45.1392V51.1761C157.2 51.0625 156.765 50.9725 156.225 50.9062C155.694 50.84 155.221 50.8068 154.804 50.8068C153.98 50.8068 153.237 50.9915 152.574 51.3608C151.921 51.7206 151.405 52.2273 151.026 52.8807C150.657 53.5246 150.472 54.2822 150.472 55.1534V67H143.526ZM173.693 45.1818V50.2955H159.929V45.1818H173.693ZM162.812 39.9545H169.758V60.1392C169.758 60.5653 169.824 60.911 169.957 61.1761C170.099 61.4318 170.303 61.6165 170.568 61.7301C170.833 61.8343 171.15 61.8864 171.52 61.8864C171.785 61.8864 172.064 61.8627 172.358 61.8153C172.661 61.7585 172.888 61.7112 173.039 61.6733L174.091 66.6875C173.759 66.7822 173.29 66.9006 172.684 67.0426C172.088 67.1847 171.373 67.2746 170.539 67.3125C168.911 67.3883 167.514 67.1989 166.349 66.7443C165.194 66.2803 164.308 65.5606 163.693 64.5852C163.087 63.6098 162.793 62.3835 162.812 60.9062V39.9545ZM196.012 51.8438L189.634 52.0142C189.568 51.5597 189.388 51.1572 189.094 50.8068C188.801 50.447 188.417 50.1676 187.944 49.9688C187.48 49.7604 186.94 49.6562 186.324 49.6562C185.519 49.6562 184.833 49.8172 184.265 50.1392C183.706 50.4612 183.431 50.8968 183.441 51.446C183.431 51.8722 183.602 52.2415 183.952 52.554C184.312 52.8665 184.951 53.1174 185.87 53.3068L190.074 54.1023C192.252 54.5189 193.872 55.2102 194.932 56.1761C196.002 57.142 196.542 58.4205 196.551 60.0114C196.542 61.5076 196.097 62.8097 195.216 63.9176C194.345 65.0256 193.152 65.8873 191.637 66.5028C190.122 67.1089 188.389 67.4119 186.438 67.4119C183.322 67.4119 180.865 66.7727 179.066 65.4943C177.276 64.2064 176.253 62.483 175.998 60.3239L182.858 60.1534C183.01 60.9489 183.403 61.5549 184.037 61.9716C184.672 62.3883 185.481 62.5966 186.466 62.5966C187.356 62.5966 188.081 62.4309 188.64 62.0994C189.198 61.768 189.482 61.3277 189.492 60.7784C189.482 60.286 189.265 59.893 188.838 59.5994C188.412 59.2964 187.745 59.0597 186.836 58.8892L183.029 58.1648C180.841 57.767 179.212 57.0331 178.142 55.9631C177.072 54.8835 176.542 53.5104 176.551 51.8438C176.542 50.3854 176.93 49.1402 177.716 48.108C178.502 47.0663 179.62 46.2708 181.069 45.7216C182.517 45.1723 184.227 44.8977 186.196 44.8977C189.151 44.8977 191.48 45.518 193.185 46.7585C194.89 47.9896 195.832 49.6847 196.012 51.8438Z" fill="#3A3A3A"/>
</svg>
